<?xml version="1.0" standalone="yes"?>
<!-- SVG graphic -->
<svg xmlns='http://www.w3.org/2000/svg' xmlns:xlink='http://www.w3.org/1999/xlink'
 version="1.1">
<rect x="0" y="0" width="6" height="200" stroke="black" stroke-width="1" fill="blue" tooltip="enable"><title>(0,17407)</title></rect><rect x="6" y="144.654" width="6" height="55.3456" stroke="black" stroke-width="1" fill="blue" tooltip="enable"><title>(0.0318227,4817)</title></rect><rect x="12" y="159.143" width="6" height="40.8571" stroke="black" stroke-width="1" fill="blue" tooltip="enable"><title>(0.0636455,3556)</title></rect><rect x="18" y="166.014" width="6" height="33.9863" stroke="black" stroke-width="1" fill="blue" tooltip="enable"><title>(0.0954682,2958)</title></rect><rect x="24" y="168.289" width="6" height="31.7114" stroke="black" stroke-width="1" fill="blue" tooltip="enable"><title>(0.127291,2760)</title></rect><rect x="30" y="171.46" width="6" height="28.5402" stroke="black" stroke-width="1" fill="blue" tooltip="enable"><title>(0.159114,2484)</title></rect><rect x="36" y="172.758" width="6" height="27.2419" stroke="black" stroke-width="1" fill="blue" tooltip="enable"><title>(0.190936,2371)</title></rect><rect x="42" y="175.125" width="6" height="24.875" stroke="black" stroke-width="1" fill="blue" tooltip="enable"><title>(0.222759,2165)</title></rect><rect x="48" y="176.538" width="6" height="23.4618" stroke="black" stroke-width="1" fill="blue" tooltip="enable"><title>(0.254582,2042)</title></rect><rect x="54" y="179.422" width="6" height="20.5779" stroke="black" stroke-width="1" fill="blue" tooltip="enable"><title>(0.286405,1791)</title></rect><rect x="60" y="180.008" width="6" height="19.992" stroke="black" stroke-width="1" fill="blue" tooltip="enable"><title>(0.318227,1740)</title></rect><rect x="66" y="180.962" width="6" height="19.0383" stroke="black" stroke-width="1" fill="blue" tooltip="enable"><title>(0.35005,1657)</title></rect><rect x="72" y="182.019" width="6" height="17.9813" stroke="black" stroke-width="1" fill="blue" tooltip="enable"><title>(0.381873,1565)</title></rect><rect x="78" y="183.053" width="6" height="16.9472" stroke="black" stroke-width="1" fill="blue" tooltip="enable"><title>(0.413696,1475)</title></rect><rect x="84" y="184.144" width="6" height="15.8557" stroke="black" stroke-width="1" fill="blue" tooltip="enable"><title>(0.445518,1380)</title></rect><rect x="90" y="184.926" width="6" height="15.0744" stroke="black" stroke-width="1" fill="blue" tooltip="enable"><title>(0.477341,1312)</title></rect><rect x="96" y="186.844" width="6" height="13.1556" stroke="black" stroke-width="1" fill="blue" tooltip="enable"><title>(0.509164,1145)</title></rect><rect x="102" y="187.178" width="6" height="12.8224" stroke="black" stroke-width="1" fill="blue" tooltip="enable"><title>(0.540987,1116)</title></rect><rect x="108" y="188.671" width="6" height="11.3288" stroke="black" stroke-width="1" fill="blue" tooltip="enable"><title>(0.572809,986)</title></rect><rect x="114" y="189.027" width="6" height="10.9726" stroke="black" stroke-width="1" fill="blue" tooltip="enable"><title>(0.604632,955)</title></rect><rect x="120" y="190.854" width="6" height="9.14575" stroke="black" stroke-width="1" fill="blue" tooltip="enable"><title>(0.636455,796)</title></rect><rect x="126" y="191.371" width="6" height="8.62871" stroke="black" stroke-width="1" fill="blue" tooltip="enable"><title>(0.668278,751)</title></rect><rect x="132" y="191.819" width="6" height="8.18062" stroke="black" stroke-width="1" fill="blue" tooltip="enable"><title>(0.7001,712)</title></rect><rect x="138" y="192.67" width="6" height="7.33038" stroke="black" stroke-width="1" fill="blue" tooltip="enable"><title>(0.731923,638)</title></rect><rect x="144" y="193.474" width="6" height="6.52611" stroke="black" stroke-width="1" fill="blue" tooltip="enable"><title>(0.763746,568)</title></rect><rect x="150" y="193.819" width="6" height="6.18142" stroke="black" stroke-width="1" fill="blue" tooltip="enable"><title>(0.795569,538)</title></rect><rect x="156" y="194.29" width="6" height="5.71035" stroke="black" stroke-width="1" fill="blue" tooltip="enable"><title>(0.827391,497)</title></rect><rect x="162" y="194.565" width="6" height="5.4346" stroke="black" stroke-width="1" fill="blue" tooltip="enable"><title>(0.859214,473)</title></rect><rect x="168" y="195.117" width="6" height="4.88309" stroke="black" stroke-width="1" fill="blue" tooltip="enable"><title>(0.891037,425)</title></rect><rect x="174" y="195.749" width="6" height="4.25116" stroke="black" stroke-width="1" fill="blue" tooltip="enable"><title>(0.922859,370)</title></rect><rect x="180" y="196.358" width="6" height="3.64221" stroke="black" stroke-width="1" fill="blue" tooltip="enable"><title>(0.954682,317)</title></rect><rect x="186" y="196.519" width="6" height="3.48136" stroke="black" stroke-width="1" fill="blue" tooltip="enable"><title>(0.986505,303)</title></rect><rect x="192" y="196.84" width="6" height="3.15965" stroke="black" stroke-width="1" fill="blue" tooltip="enable"><title>(1.01833,275)</title></rect><rect x="198" y="197.3" width="6" height="2.70006" stroke="black" stroke-width="1" fill="blue" tooltip="enable"><title>(1.05015,235)</title></rect><rect x="204" y="197.76" width="6" height="2.24048" stroke="black" stroke-width="1" fill="blue" tooltip="enable"><title>(1.08197,195)</title></rect><rect x="210" y="197.61" width="6" height="2.38984" stroke="black" stroke-width="1" fill="blue" tooltip="enable"><title>(1.1138,208)</title></rect><rect x="216" y="197.622" width="6" height="2.37835" stroke="black" stroke-width="1" fill="blue" tooltip="enable"><title>(1.14562,207)</title></rect><rect x="222" y="198.047" width="6" height="1.95324" stroke="black" stroke-width="1" fill="blue" tooltip="enable"><title>(1.17744,170)</title></rect><rect x="228" y="198.368" width="6" height="1.63153" stroke="black" stroke-width="1" fill="blue" tooltip="enable"><title>(1.20926,142)</title></rect><rect x="234" y="198.506" width="6" height="1.49365" stroke="black" stroke-width="1" fill="blue" tooltip="enable"><title>(1.24109,130)</title></rect><rect x="240" y="198.679" width="6" height="1.32131" stroke="black" stroke-width="1" fill="blue" tooltip="enable"><title>(1.27291,115)</title></rect><rect x="246" y="198.644" width="6" height="1.35578" stroke="black" stroke-width="1" fill="blue" tooltip="enable"><title>(1.30473,118)</title></rect><rect x="252" y="198.805" width="6" height="1.19492" stroke="black" stroke-width="1" fill="blue" tooltip="enable"><title>(1.33656,104)</title></rect><rect x="258" y="199.012" width="6" height="0.988108" stroke="black" stroke-width="1" fill="blue" tooltip="enable"><title>(1.36838,86)</title></rect><rect x="264" y="198.989" width="6" height="1.01109" stroke="black" stroke-width="1" fill="blue" tooltip="enable"><title>(1.4002,88)</title></rect><rect x="270" y="199.035" width="6" height="0.965129" stroke="black" stroke-width="1" fill="blue" tooltip="enable"><title>(1.43202,84)</title></rect><rect x="276" y="199.173" width="6" height="0.827253" stroke="black" stroke-width="1" fill="blue" tooltip="enable"><title>(1.46385,72)</title></rect><rect x="282" y="199.368" width="6" height="0.63193" stroke="black" stroke-width="1" fill="blue" tooltip="enable"><title>(1.49567,55)</title></rect><rect x="288" y="199.046" width="6" height="0.953639" stroke="black" stroke-width="1" fill="blue" tooltip="enable"><title>(1.52749,83)</title></rect><rect x="294" y="199.563" width="6" height="0.436606" stroke="black" stroke-width="1" fill="blue" tooltip="enable"><title>(1.55931,38)</title></rect><rect x="300" y="199.483" width="6" height="0.517033" stroke="black" stroke-width="1" fill="blue" tooltip="enable"><title>(1.59114,45)</title></rect><rect x="306" y="199.311" width="6" height="0.689378" stroke="black" stroke-width="1" fill="blue" tooltip="enable"><title>(1.62296,60)</title></rect><rect x="312" y="199.46" width="6" height="0.540013" stroke="black" stroke-width="1" fill="blue" tooltip="enable"><title>(1.65478,47)</title></rect><rect x="318" y="199.54" width="6" height="0.459585" stroke="black" stroke-width="1" fill="blue" tooltip="enable"><title>(1.68661,40)</title></rect><rect x="324" y="199.77" width="6" height="0.229793" stroke="black" stroke-width="1" fill="blue" tooltip="enable"><title>(1.71843,20)</title></rect><rect x="330" y="199.598" width="6" height="0.402137" stroke="black" stroke-width="1" fill="blue" tooltip="enable"><title>(1.75025,35)</title></rect><rect x="336" y="199.701" width="6" height="0.29873" stroke="black" stroke-width="1" fill="blue" tooltip="enable"><title>(1.78207,26)</title></rect><rect x="342" y="199.713" width="6" height="0.287241" stroke="black" stroke-width="1" fill="blue" tooltip="enable"><title>(1.8139,25)</title></rect><rect x="348" y="199.759" width="6" height="0.241282" stroke="black" stroke-width="1" fill="blue" tooltip="enable"><title>(1.84572,21)</title></rect><rect x="354" y="199.782" width="6" height="0.218303" stroke="black" stroke-width="1" fill="blue" tooltip="enable"><title>(1.87754,19)</title></rect><rect x="360" y="199.759" width="6" height="0.241282" stroke="black" stroke-width="1" fill="blue" tooltip="enable"><title>(1.90936,21)</title></rect><rect x="366" y="199.782" width="6" height="0.218303" stroke="black" stroke-width="1" fill="blue" tooltip="enable"><title>(1.94119,19)</title></rect><rect x="372" y="199.793" width="6" height="0.206813" stroke="black" stroke-width="1" fill="blue" tooltip="enable"><title>(1.97301,18)</title></rect><rect x="378" y="199.816" width="6" height="0.183834" stroke="black" stroke-width="1" fill="blue" tooltip="enable"><title>(2.00483,16)</title></rect><rect x="384" y="199.897" width="6" height="0.103407" stroke="black" stroke-width="1" fill="blue" tooltip="enable"><title>(2.03666,9)</title></rect><rect x="390" y="199.828" width="6" height="0.172344" stroke="black" stroke-width="1" fill="blue" tooltip="enable"><title>(2.06848,15)</title></rect><rect x="396" y="199.839" width="6" height="0.160855" stroke="black" stroke-width="1" fill="blue" tooltip="enable"><title>(2.1003,14)</title></rect><rect x="402" y="199.92" width="6" height="0.0804274" stroke="black" stroke-width="1" fill="blue" tooltip="enable"><title>(2.13212,7)</title></rect><rect x="408" y="199.851" width="6" height="0.149365" stroke="black" stroke-width="1" fill="blue" tooltip="enable"><title>(2.16395,13)</title></rect><rect x="414" y="199.908" width="6" height="0.091917" stroke="black" stroke-width="1" fill="blue" tooltip="enable"><title>(2.19577,8)</title></rect><rect x="420" y="199.851" width="6" height="0.149365" stroke="black" stroke-width="1" fill="blue" tooltip="enable"><title>(2.22759,13)</title></rect><rect x="426" y="199.908" width="6" height="0.091917" stroke="black" stroke-width="1" fill="blue" tooltip="enable"><title>(2.25941,8)</title></rect><rect x="432" y="199.92" width="6" height="0.0804274" stroke="black" stroke-width="1" fill="blue" tooltip="enable"><title>(2.29124,7)</title></rect><rect x="438" y="199.943" width="6" height="0.0574482" stroke="black" stroke-width="1" fill="blue" tooltip="enable"><title>(2.32306,5)</title></rect><rect x="444" y="199.897" width="6" height="0.103407" stroke="black" stroke-width="1" fill="blue" tooltip="enable"><title>(2.35488,9)</title></rect><rect x="450" y="199.954" width="6" height="0.0459585" stroke="black" stroke-width="1" fill="blue" tooltip="enable"><title>(2.38671,4)</title></rect><rect x="456" y="199.931" width="6" height="0.0689378" stroke="black" stroke-width="1" fill="blue" tooltip="enable"><title>(2.41853,6)</title></rect><rect x="462" y="199.943" width="6" height="0.0574482" stroke="black" stroke-width="1" fill="blue" tooltip="enable"><title>(2.45035,5)</title></rect><rect x="468" y="199.966" width="6" height="0.0344689" stroke="black" stroke-width="1" fill="blue" tooltip="enable"><title>(2.48217,3)</title></rect><rect x="474" y="199.966" width="6" height="0.0344689" stroke="black" stroke-width="1" fill="blue" tooltip="enable"><title>(2.514,3)</title></rect><rect x="480" y="199.954" width="6" height="0.0459585" stroke="black" stroke-width="1" fill="blue" tooltip="enable"><title>(2.54582,4)</title></rect><rect x="486" y="199.966" width="6" height="0.0344689" stroke="black" stroke-width="1" fill="blue" tooltip="enable"><title>(2.57764,3)</title></rect><rect x="492" y="199.977" width="6" height="0.0229793" stroke="black" stroke-width="1" fill="blue" tooltip="enable"><title>(2.60946,2)</title></rect><rect x="498" y="199.931" width="6" height="0.0689378" stroke="black" stroke-width="1" fill="blue" tooltip="enable"><title>(2.64129,6)</title></rect><rect x="504" y="199.966" width="6" height="0.0344689" stroke="black" stroke-width="1" fill="blue" tooltip="enable"><title>(2.67311,3)</title></rect><rect x="510" y="199.977" width="6" height="0.0229793" stroke="black" stroke-width="1" fill="blue" tooltip="enable"><title>(2.70493,2)</title></rect><rect x="516" y="200" width="6" height="0" stroke="black" stroke-width="1" fill="blue" tooltip="enable"><title>(2.73676,0)</title></rect><rect x="522" y="199.931" width="6" height="0.0689378" stroke="black" stroke-width="1" fill="blue" tooltip="enable"><title>(2.76858,6)</title></rect><rect x="528" y="199.989" width="6" height="0.0114896" stroke="black" stroke-width="1" fill="blue" tooltip="enable"><title>(2.8004,1)</title></rect><rect x="534" y="199.989" width="6" height="0.0114896" stroke="black" stroke-width="1" fill="blue" tooltip="enable"><title>(2.83222,1)</title></rect><rect x="540" y="200" width="6" height="0" stroke="black" stroke-width="1" fill="blue" tooltip="enable"><title>(2.86405,0)</title></rect><rect x="546" y="200" width="6" height="0" stroke="black" stroke-width="1" fill="blue" tooltip="enable"><title>(2.89587,0)</title></rect><rect x="552" y="200" width="6" height="0" stroke="black" stroke-width="1" fill="blue" tooltip="enable"><title>(2.92769,0)</title></rect><rect x="558" y="199.989" width="6" height="0.0114896" stroke="black" stroke-width="1" fill="blue" tooltip="enable"><title>(2.95951,1)</title></rect><rect x="564" y="200" width="6" height="0" stroke="black" stroke-width="1" fill="blue" tooltip="enable"><title>(2.99134,0)</title></rect><rect x="570" y="200" width="6" height="0" stroke="black" stroke-width="1" fill="blue" tooltip="enable"><title>(3.02316,0)</title></rect><rect x="576" y="199.989" width="6" height="0.0114896" stroke="black" stroke-width="1" fill="blue" tooltip="enable"><title>(3.05498,1)</title></rect><rect x="582" y="199.989" width="6" height="0.0114896" stroke="black" stroke-width="1" fill="blue" tooltip="enable"><title>(3.08681,1)</title></rect><rect x="588" y="200" width="6" height="0" stroke="black" stroke-width="1" fill="blue" tooltip="enable"><title>(3.11863,0)</title></rect><rect x="594" y="199.989" width="6" height="0.0114896" stroke="black" stroke-width="1" fill="blue" tooltip="enable"><title>(3.15045,1)</title></rect><text x="30" y="240" font-size="20" fill="black">0</text>
<text x="600" y="240" font-size="20" fill="black">3.18227</text>
<polyline points="0,220,600,220" stroke="black" stroke-width="1" fill="none"/>
<text x="720" y="20" font-size="20" fill="black">17407</text>
<text x="720" y="200" font-size="20" fill="black">0</text>
<polyline points="660,0,660,200" stroke="black" stroke-width="1" fill="none"/>
</svg>