<?xml version="1.0" standalone="yes"?>
<!-- SVG graphic -->
<svg xmlns='http://www.w3.org/2000/svg' xmlns:xlink='http://www.w3.org/1999/xlink'
 version="1.1">
<rect x="0" y="0" width="6" height="200" stroke="black" stroke-width="1" fill="blue" tooltip="enable"><title>(0,8950)</title></rect><rect x="6" y="137.542" width="6" height="62.4581" stroke="black" stroke-width="1" fill="blue" tooltip="enable"><title>(0.0370231,2795)</title></rect><rect x="12" y="156.782" width="6" height="43.2179" stroke="black" stroke-width="1" fill="blue" tooltip="enable"><title>(0.0740463,1934)</title></rect><rect x="18" y="161.765" width="6" height="38.2346" stroke="black" stroke-width="1" fill="blue" tooltip="enable"><title>(0.111069,1711)</title></rect><rect x="24" y="163.642" width="6" height="36.3575" stroke="black" stroke-width="1" fill="blue" tooltip="enable"><title>(0.148093,1627)</title></rect><rect x="30" y="167.642" width="6" height="32.3575" stroke="black" stroke-width="1" fill="blue" tooltip="enable"><title>(0.185116,1448)</title></rect><rect x="36" y="169.989" width="6" height="30.0112" stroke="black" stroke-width="1" fill="blue" tooltip="enable"><title>(0.222139,1343)</title></rect><rect x="42" y="171.173" width="6" height="28.8268" stroke="black" stroke-width="1" fill="blue" tooltip="enable"><title>(0.259162,1290)</title></rect><rect x="48" y="175.285" width="6" height="24.7151" stroke="black" stroke-width="1" fill="blue" tooltip="enable"><title>(0.296185,1106)</title></rect><rect x="54" y="176.112" width="6" height="23.8883" stroke="black" stroke-width="1" fill="blue" tooltip="enable"><title>(0.333208,1069)</title></rect><rect x="60" y="177.341" width="6" height="22.6592" stroke="black" stroke-width="1" fill="blue" tooltip="enable"><title>(0.370231,1014)</title></rect><rect x="66" y="177.989" width="6" height="22.0112" stroke="black" stroke-width="1" fill="blue" tooltip="enable"><title>(0.407254,985)</title></rect><rect x="72" y="180.581" width="6" height="19.419" stroke="black" stroke-width="1" fill="blue" tooltip="enable"><title>(0.444278,869)</title></rect><rect x="78" y="182.436" width="6" height="17.5642" stroke="black" stroke-width="1" fill="blue" tooltip="enable"><title>(0.481301,786)</title></rect><rect x="84" y="184.112" width="6" height="15.8883" stroke="black" stroke-width="1" fill="blue" tooltip="enable"><title>(0.518324,711)</title></rect><rect x="90" y="185.207" width="6" height="14.7933" stroke="black" stroke-width="1" fill="blue" tooltip="enable"><title>(0.555347,662)</title></rect><rect x="96" y="186.145" width="6" height="13.8547" stroke="black" stroke-width="1" fill="blue" tooltip="enable"><title>(0.59237,620)</title></rect><rect x="102" y="187.24" width="6" height="12.7598" stroke="black" stroke-width="1" fill="blue" tooltip="enable"><title>(0.629393,571)</title></rect><rect x="108" y="189.341" width="6" height="10.6592" stroke="black" stroke-width="1" fill="blue" tooltip="enable"><title>(0.666416,477)</title></rect><rect x="114" y="189.721" width="6" height="10.2793" stroke="black" stroke-width="1" fill="blue" tooltip="enable"><title>(0.703439,460)</title></rect><rect x="120" y="190.078" width="6" height="9.92179" stroke="black" stroke-width="1" fill="blue" tooltip="enable"><title>(0.740463,444)</title></rect><rect x="126" y="191.531" width="6" height="8.46927" stroke="black" stroke-width="1" fill="blue" tooltip="enable"><title>(0.777486,379)</title></rect><rect x="132" y="192.201" width="6" height="7.79888" stroke="black" stroke-width="1" fill="blue" tooltip="enable"><title>(0.814509,349)</title></rect><rect x="138" y="192.737" width="6" height="7.26257" stroke="black" stroke-width="1" fill="blue" tooltip="enable"><title>(0.851532,325)</title></rect><rect x="144" y="192.804" width="6" height="7.19553" stroke="black" stroke-width="1" fill="blue" tooltip="enable"><title>(0.888555,322)</title></rect><rect x="150" y="193.944" width="6" height="6.05587" stroke="black" stroke-width="1" fill="blue" tooltip="enable"><title>(0.925578,271)</title></rect><rect x="156" y="195.196" width="6" height="4.80447" stroke="black" stroke-width="1" fill="blue" tooltip="enable"><title>(0.962601,215)</title></rect><rect x="162" y="195.464" width="6" height="4.53631" stroke="black" stroke-width="1" fill="blue" tooltip="enable"><title>(0.999625,203)</title></rect><rect x="168" y="195.777" width="6" height="4.22346" stroke="black" stroke-width="1" fill="blue" tooltip="enable"><title>(1.03665,189)</title></rect><rect x="174" y="196.335" width="6" height="3.6648" stroke="black" stroke-width="1" fill="blue" tooltip="enable"><title>(1.07367,164)</title></rect><rect x="180" y="196.603" width="6" height="3.39665" stroke="black" stroke-width="1" fill="blue" tooltip="enable"><title>(1.11069,152)</title></rect><rect x="186" y="197.006" width="6" height="2.99441" stroke="black" stroke-width="1" fill="blue" tooltip="enable"><title>(1.14772,134)</title></rect><rect x="192" y="197.296" width="6" height="2.70391" stroke="black" stroke-width="1" fill="blue" tooltip="enable"><title>(1.18474,121)</title></rect><rect x="198" y="197.564" width="6" height="2.43575" stroke="black" stroke-width="1" fill="blue" tooltip="enable"><title>(1.22176,109)</title></rect><rect x="204" y="197.676" width="6" height="2.32402" stroke="black" stroke-width="1" fill="blue" tooltip="enable"><title>(1.25879,104)</title></rect><rect x="210" y="198.078" width="6" height="1.92179" stroke="black" stroke-width="1" fill="blue" tooltip="enable"><title>(1.29581,86)</title></rect><rect x="216" y="197.899" width="6" height="2.10056" stroke="black" stroke-width="1" fill="blue" tooltip="enable"><title>(1.33283,94)</title></rect><rect x="222" y="198.19" width="6" height="1.81006" stroke="black" stroke-width="1" fill="blue" tooltip="enable"><title>(1.36986,81)</title></rect><rect x="228" y="198.324" width="6" height="1.67598" stroke="black" stroke-width="1" fill="blue" tooltip="enable"><title>(1.40688,75)</title></rect><rect x="234" y="198.436" width="6" height="1.56425" stroke="black" stroke-width="1" fill="blue" tooltip="enable"><title>(1.4439,70)</title></rect><rect x="240" y="198.659" width="6" height="1.34078" stroke="black" stroke-width="1" fill="blue" tooltip="enable"><title>(1.48093,60)</title></rect><rect x="246" y="199.151" width="6" height="0.849162" stroke="black" stroke-width="1" fill="blue" tooltip="enable"><title>(1.51795,38)</title></rect><rect x="252" y="199.017" width="6" height="0.98324" stroke="black" stroke-width="1" fill="blue" tooltip="enable"><title>(1.55497,44)</title></rect><rect x="258" y="198.771" width="6" height="1.22905" stroke="black" stroke-width="1" fill="blue" tooltip="enable"><title>(1.59199,55)</title></rect><rect x="264" y="198.883" width="6" height="1.11732" stroke="black" stroke-width="1" fill="blue" tooltip="enable"><title>(1.62902,50)</title></rect><rect x="270" y="199.397" width="6" height="0.603352" stroke="black" stroke-width="1" fill="blue" tooltip="enable"><title>(1.66604,27)</title></rect><rect x="276" y="199.196" width="6" height="0.804469" stroke="black" stroke-width="1" fill="blue" tooltip="enable"><title>(1.70306,36)</title></rect><rect x="282" y="199.397" width="6" height="0.603352" stroke="black" stroke-width="1" fill="blue" tooltip="enable"><title>(1.74009,27)</title></rect><rect x="288" y="199.486" width="6" height="0.513966" stroke="black" stroke-width="1" fill="blue" tooltip="enable"><title>(1.77711,23)</title></rect><rect x="294" y="199.419" width="6" height="0.581006" stroke="black" stroke-width="1" fill="blue" tooltip="enable"><title>(1.81413,26)</title></rect><rect x="300" y="199.285" width="6" height="0.715084" stroke="black" stroke-width="1" fill="blue" tooltip="enable"><title>(1.85116,32)</title></rect><rect x="306" y="199.397" width="6" height="0.603352" stroke="black" stroke-width="1" fill="blue" tooltip="enable"><title>(1.88818,27)</title></rect><rect x="312" y="199.575" width="6" height="0.424581" stroke="black" stroke-width="1" fill="blue" tooltip="enable"><title>(1.9252,19)</title></rect><rect x="318" y="199.665" width="6" height="0.335196" stroke="black" stroke-width="1" fill="blue" tooltip="enable"><title>(1.96223,15)</title></rect><rect x="324" y="199.732" width="6" height="0.268156" stroke="black" stroke-width="1" fill="blue" tooltip="enable"><title>(1.99925,12)</title></rect><rect x="330" y="199.486" width="6" height="0.513966" stroke="black" stroke-width="1" fill="blue" tooltip="enable"><title>(2.03627,23)</title></rect><rect x="336" y="199.732" width="6" height="0.268156" stroke="black" stroke-width="1" fill="blue" tooltip="enable"><title>(2.0733,12)</title></rect><rect x="342" y="199.754" width="6" height="0.24581" stroke="black" stroke-width="1" fill="blue" tooltip="enable"><title>(2.11032,11)</title></rect><rect x="348" y="199.598" width="6" height="0.402235" stroke="black" stroke-width="1" fill="blue" tooltip="enable"><title>(2.14734,18)</title></rect><rect x="354" y="199.754" width="6" height="0.24581" stroke="black" stroke-width="1" fill="blue" tooltip="enable"><title>(2.18436,11)</title></rect><rect x="360" y="199.732" width="6" height="0.268156" stroke="black" stroke-width="1" fill="blue" tooltip="enable"><title>(2.22139,12)</title></rect><rect x="366" y="199.799" width="6" height="0.201117" stroke="black" stroke-width="1" fill="blue" tooltip="enable"><title>(2.25841,9)</title></rect><rect x="372" y="199.821" width="6" height="0.178771" stroke="black" stroke-width="1" fill="blue" tooltip="enable"><title>(2.29543,8)</title></rect><rect x="378" y="199.844" width="6" height="0.156425" stroke="black" stroke-width="1" fill="blue" tooltip="enable"><title>(2.33246,7)</title></rect><rect x="384" y="199.888" width="6" height="0.111732" stroke="black" stroke-width="1" fill="blue" tooltip="enable"><title>(2.36948,5)</title></rect><rect x="390" y="199.888" width="6" height="0.111732" stroke="black" stroke-width="1" fill="blue" tooltip="enable"><title>(2.4065,5)</title></rect><rect x="396" y="199.888" width="6" height="0.111732" stroke="black" stroke-width="1" fill="blue" tooltip="enable"><title>(2.44353,5)</title></rect><rect x="402" y="199.888" width="6" height="0.111732" stroke="black" stroke-width="1" fill="blue" tooltip="enable"><title>(2.48055,5)</title></rect><rect x="408" y="199.955" width="6" height="0.0446927" stroke="black" stroke-width="1" fill="blue" tooltip="enable"><title>(2.51757,2)</title></rect><rect x="414" y="199.955" width="6" height="0.0446927" stroke="black" stroke-width="1" fill="blue" tooltip="enable"><title>(2.5546,2)</title></rect><rect x="420" y="199.955" width="6" height="0.0446927" stroke="black" stroke-width="1" fill="blue" tooltip="enable"><title>(2.59162,2)</title></rect><rect x="426" y="199.911" width="6" height="0.0893855" stroke="black" stroke-width="1" fill="blue" tooltip="enable"><title>(2.62864,4)</title></rect><rect x="432" y="199.933" width="6" height="0.0670391" stroke="black" stroke-width="1" fill="blue" tooltip="enable"><title>(2.66567,3)</title></rect><rect x="438" y="199.955" width="6" height="0.0446927" stroke="black" stroke-width="1" fill="blue" tooltip="enable"><title>(2.70269,2)</title></rect><rect x="444" y="199.888" width="6" height="0.111732" stroke="black" stroke-width="1" fill="blue" tooltip="enable"><title>(2.73971,5)</title></rect><rect x="450" y="199.888" width="6" height="0.111732" stroke="black" stroke-width="1" fill="blue" tooltip="enable"><title>(2.77673,5)</title></rect><rect x="456" y="199.978" width="6" height="0.0223464" stroke="black" stroke-width="1" fill="blue" tooltip="enable"><title>(2.81376,1)</title></rect><rect x="462" y="199.955" width="6" height="0.0446927" stroke="black" stroke-width="1" fill="blue" tooltip="enable"><title>(2.85078,2)</title></rect><rect x="468" y="199.978" width="6" height="0.0223464" stroke="black" stroke-width="1" fill="blue" tooltip="enable"><title>(2.8878,1)</title></rect><rect x="474" y="199.955" width="6" height="0.0446927" stroke="black" stroke-width="1" fill="blue" tooltip="enable"><title>(2.92483,2)</title></rect><rect x="480" y="199.978" width="6" height="0.0223464" stroke="black" stroke-width="1" fill="blue" tooltip="enable"><title>(2.96185,1)</title></rect><rect x="486" y="199.978" width="6" height="0.0223464" stroke="black" stroke-width="1" fill="blue" tooltip="enable"><title>(2.99887,1)</title></rect><rect x="492" y="199.978" width="6" height="0.0223464" stroke="black" stroke-width="1" fill="blue" tooltip="enable"><title>(3.0359,1)</title></rect><rect x="498" y="199.955" width="6" height="0.0446927" stroke="black" stroke-width="1" fill="blue" tooltip="enable"><title>(3.07292,2)</title></rect><rect x="504" y="200" width="6" height="0" stroke="black" stroke-width="1" fill="blue" tooltip="enable"><title>(3.10994,0)</title></rect><rect x="510" y="199.978" width="6" height="0.0223464" stroke="black" stroke-width="1" fill="blue" tooltip="enable"><title>(3.14697,1)</title></rect><rect x="516" y="200" width="6" height="0" stroke="black" stroke-width="1" fill="blue" tooltip="enable"><title>(3.18399,0)</title></rect><rect x="522" y="200" width="6" height="0" stroke="black" stroke-width="1" fill="blue" tooltip="enable"><title>(3.22101,0)</title></rect><rect x="528" y="199.978" width="6" height="0.0223464" stroke="black" stroke-width="1" fill="blue" tooltip="enable"><title>(3.25804,1)</title></rect><rect x="534" y="199.978" width="6" height="0.0223464" stroke="black" stroke-width="1" fill="blue" tooltip="enable"><title>(3.29506,1)</title></rect><rect x="540" y="199.978" width="6" height="0.0223464" stroke="black" stroke-width="1" fill="blue" tooltip="enable"><title>(3.33208,1)</title></rect><rect x="546" y="199.933" width="6" height="0.0670391" stroke="black" stroke-width="1" fill="blue" tooltip="enable"><title>(3.3691,3)</title></rect><rect x="552" y="200" width="6" height="0" stroke="black" stroke-width="1" fill="blue" tooltip="enable"><title>(3.40613,0)</title></rect><rect x="558" y="200" width="6" height="0" stroke="black" stroke-width="1" fill="blue" tooltip="enable"><title>(3.44315,0)</title></rect><rect x="564" y="200" width="6" height="0" stroke="black" stroke-width="1" fill="blue" tooltip="enable"><title>(3.48017,0)</title></rect><rect x="570" y="200" width="6" height="0" stroke="black" stroke-width="1" fill="blue" tooltip="enable"><title>(3.5172,0)</title></rect><rect x="576" y="200" width="6" height="0" stroke="black" stroke-width="1" fill="blue" tooltip="enable"><title>(3.55422,0)</title></rect><rect x="582" y="199.978" width="6" height="0.0223464" stroke="black" stroke-width="1" fill="blue" tooltip="enable"><title>(3.59124,1)</title></rect><rect x="588" y="200" width="6" height="0" stroke="black" stroke-width="1" fill="blue" tooltip="enable"><title>(3.62827,0)</title></rect><rect x="594" y="199.978" width="6" height="0.0223464" stroke="black" stroke-width="1" fill="blue" tooltip="enable"><title>(3.66529,1)</title></rect><text x="30" y="240" font-size="20" fill="black">0</text>
<text x="600" y="240" font-size="20" fill="black">3.70231</text>
<polyline points="0,220,600,220" stroke="black" stroke-width="1" fill="none"/>
<text x="720" y="20" font-size="20" fill="black">8950</text>
<text x="720" y="200" font-size="20" fill="black">0</text>
<polyline points="660,0,660,200" stroke="black" stroke-width="1" fill="none"/>
</svg>