{
    "asset" : {
        "generator" : "Khronos glTF Blender I/O v1.6.16",
        "version" : "2.0"
    },
    "scene" : 0,
    "scenes" : [
        {
            "name" : "Scene",
            "nodes" : [
                0
            ]
        }
    ],
    "nodes" : [
        {
            "mesh" : 0,
            "name" : "texturedMesh",
            "rotation" : [
                -0.8265653252601624,
                0.04271227866411209,
                0.21974076330661774,
                0.5164103507995605
            ]
        }
    ],
    "materials" : [
        {
            "doubleSided" : true,
            "name" : "TextureAtlas_1001",
            "pbrMetallicRoughness" : {
                "baseColorTexture" : {
                    "index" : 0
                },
                "metallicFactor" : 0
            }
        }
    ],
    "meshes" : [
        {
            "name" : "texturedMesh",
            "primitives" : [
                {
                    "attributes" : {
                        "POSITION" : 0,
                        "NORMAL" : 1,
                        "TEXCOORD_0" : 2
                    },
                    "indices" : 3,
                    "material" : 0
                }
            ]
        }
    ],
    "textures" : [
        {
            "sampler" : 0,
            "source" : 0
        }
    ],
    "images" : [
        {
            "bufferView" : 4,
            "mimeType" : "image/png",
            "name" : "texture_1001"
        }
    ],
    "accessors" : [
        {
            "bufferView" : 0,
            "componentType" : 5126,
            "count" : 19578,
            "max" : [
                0.060998618602752686,
                0.15067324042320251,
                0.11678162217140198
            ],
            "min" : [
                -0.09629911184310913,
                -0.13451875746250153,
                -0.1405220627784729
            ],
            "type" : "VEC3"
        },
        {
            "bufferView" : 1,
            "componentType" : 5126,
            "count" : 19578,
            "type" : "VEC3"
        },
        {
            "bufferView" : 2,
            "componentType" : 5126,
            "count" : 19578,
            "type" : "VEC2"
        },
        {
            "bufferView" : 3,
            "componentType" : 5123,
            "count" : 19578,
            "type" : "SCALAR"
        }
    ],
    "bufferViews" : [
        {
            "buffer" : 0,
            "byteLength" : 234936,
            "byteOffset" : 0
        },
        {
            "buffer" : 0,
            "byteLength" : 234936,
            "byteOffset" : 234936
        },
        {
            "buffer" : 0,
            "byteLength" : 156624,
            "byteOffset" : 469872
        },
        {
            "buffer" : 0,
            "byteLength" : 39156,
            "byteOffset" : 626496
        },
        {
            "buffer" : 0,
            "byteLength" : 1444326,
            "byteOffset" : 665652
        }
    ],
    "samplers" : [
        {
            "magFilter" : 9729,
            "minFilter" : 9987
        }
    ],
    "buffers" : [
        {
            "byteLength" : 2109980,
            "uri" : "data:application/octet-stream;base64,"
        }
    ]
}
