<?xml version="1.0" standalone="yes"?>
<!-- SVG graphic -->
<svg xmlns='http://www.w3.org/2000/svg' xmlns:xlink='http://www.w3.org/1999/xlink'
 version="1.1">
<rect x="0" y="0" width="6" height="200" stroke="black" stroke-width="1" fill="blue" tooltip="enable"><title>(0,18087)</title></rect><rect x="6" y="145.685" width="6" height="54.3153" stroke="black" stroke-width="1" fill="blue" tooltip="enable"><title>(0.0340356,4912)</title></rect><rect x="12" y="159.894" width="6" height="40.1062" stroke="black" stroke-width="1" fill="blue" tooltip="enable"><title>(0.0680711,3627)</title></rect><rect x="18" y="165.102" width="6" height="34.898" stroke="black" stroke-width="1" fill="blue" tooltip="enable"><title>(0.102107,3156)</title></rect><rect x="24" y="169.182" width="6" height="30.8177" stroke="black" stroke-width="1" fill="blue" tooltip="enable"><title>(0.136142,2787)</title></rect><rect x="30" y="171.173" width="6" height="28.8273" stroke="black" stroke-width="1" fill="blue" tooltip="enable"><title>(0.170178,2607)</title></rect><rect x="36" y="172.422" width="6" height="27.5778" stroke="black" stroke-width="1" fill="blue" tooltip="enable"><title>(0.204213,2494)</title></rect><rect x="42" y="176.425" width="6" height="23.5749" stroke="black" stroke-width="1" fill="blue" tooltip="enable"><title>(0.238249,2132)</title></rect><rect x="48" y="176.889" width="6" height="23.1105" stroke="black" stroke-width="1" fill="blue" tooltip="enable"><title>(0.272284,2090)</title></rect><rect x="54" y="179.576" width="6" height="20.4235" stroke="black" stroke-width="1" fill="blue" tooltip="enable"><title>(0.30632,1847)</title></rect><rect x="60" y="179.964" width="6" height="20.0365" stroke="black" stroke-width="1" fill="blue" tooltip="enable"><title>(0.340356,1812)</title></rect><rect x="66" y="181.401" width="6" height="18.599" stroke="black" stroke-width="1" fill="blue" tooltip="enable"><title>(0.374391,1682)</title></rect><rect x="72" y="182.23" width="6" height="17.7697" stroke="black" stroke-width="1" fill="blue" tooltip="enable"><title>(0.408427,1607)</title></rect><rect x="78" y="184.541" width="6" height="15.4586" stroke="black" stroke-width="1" fill="blue" tooltip="enable"><title>(0.442462,1398)</title></rect><rect x="84" y="184.663" width="6" height="15.337" stroke="black" stroke-width="1" fill="blue" tooltip="enable"><title>(0.476498,1387)</title></rect><rect x="90" y="186.852" width="6" height="13.1476" stroke="black" stroke-width="1" fill="blue" tooltip="enable"><title>(0.510533,1189)</title></rect><rect x="96" y="187.494" width="6" height="12.5062" stroke="black" stroke-width="1" fill="blue" tooltip="enable"><title>(0.544569,1131)</title></rect><rect x="102" y="188.047" width="6" height="11.9533" stroke="black" stroke-width="1" fill="blue" tooltip="enable"><title>(0.578604,1081)</title></rect><rect x="108" y="189.639" width="6" height="10.361" stroke="black" stroke-width="1" fill="blue" tooltip="enable"><title>(0.61264,937)</title></rect><rect x="114" y="190.645" width="6" height="9.35478" stroke="black" stroke-width="1" fill="blue" tooltip="enable"><title>(0.646676,846)</title></rect><rect x="120" y="191.519" width="6" height="8.48123" stroke="black" stroke-width="1" fill="blue" tooltip="enable"><title>(0.680711,767)</title></rect><rect x="126" y="192.26" width="6" height="7.74037" stroke="black" stroke-width="1" fill="blue" tooltip="enable"><title>(0.714747,700)</title></rect><rect x="132" y="193.542" width="6" height="6.45768" stroke="black" stroke-width="1" fill="blue" tooltip="enable"><title>(0.748782,584)</title></rect><rect x="138" y="193.542" width="6" height="6.45768" stroke="black" stroke-width="1" fill="blue" tooltip="enable"><title>(0.782818,584)</title></rect><rect x="144" y="193.708" width="6" height="6.29181" stroke="black" stroke-width="1" fill="blue" tooltip="enable"><title>(0.816853,569)</title></rect><rect x="150" y="194.958" width="6" height="5.0423" stroke="black" stroke-width="1" fill="blue" tooltip="enable"><title>(0.850889,456)</title></rect><rect x="156" y="195.19" width="6" height="4.81008" stroke="black" stroke-width="1" fill="blue" tooltip="enable"><title>(0.884924,435)</title></rect><rect x="162" y="195.577" width="6" height="4.42307" stroke="black" stroke-width="1" fill="blue" tooltip="enable"><title>(0.91896,400)</title></rect><rect x="168" y="196.141" width="6" height="3.85913" stroke="black" stroke-width="1" fill="blue" tooltip="enable"><title>(0.952996,349)</title></rect><rect x="174" y="196.65" width="6" height="3.35047" stroke="black" stroke-width="1" fill="blue" tooltip="enable"><title>(0.987031,303)</title></rect><rect x="180" y="196.893" width="6" height="3.1072" stroke="black" stroke-width="1" fill="blue" tooltip="enable"><title>(1.02107,281)</title></rect><rect x="186" y="197.324" width="6" height="2.67596" stroke="black" stroke-width="1" fill="blue" tooltip="enable"><title>(1.0551,242)</title></rect><rect x="192" y="197.479" width="6" height="2.52115" stroke="black" stroke-width="1" fill="blue" tooltip="enable"><title>(1.08914,228)</title></rect><rect x="198" y="197.645" width="6" height="2.35528" stroke="black" stroke-width="1" fill="blue" tooltip="enable"><title>(1.12317,213)</title></rect><rect x="204" y="197.766" width="6" height="2.23365" stroke="black" stroke-width="1" fill="blue" tooltip="enable"><title>(1.15721,202)</title></rect><rect x="210" y="198.264" width="6" height="1.73605" stroke="black" stroke-width="1" fill="blue" tooltip="enable"><title>(1.19124,157)</title></rect><rect x="216" y="198.618" width="6" height="1.38221" stroke="black" stroke-width="1" fill="blue" tooltip="enable"><title>(1.22528,125)</title></rect><rect x="222" y="198.408" width="6" height="1.5923" stroke="black" stroke-width="1" fill="blue" tooltip="enable"><title>(1.25932,144)</title></rect><rect x="228" y="198.784" width="6" height="1.21634" stroke="black" stroke-width="1" fill="blue" tooltip="enable"><title>(1.29335,110)</title></rect><rect x="234" y="198.784" width="6" height="1.21634" stroke="black" stroke-width="1" fill="blue" tooltip="enable"><title>(1.32739,110)</title></rect><rect x="240" y="198.684" width="6" height="1.31586" stroke="black" stroke-width="1" fill="blue" tooltip="enable"><title>(1.36142,119)</title></rect><rect x="246" y="198.972" width="6" height="1.02836" stroke="black" stroke-width="1" fill="blue" tooltip="enable"><title>(1.39546,93)</title></rect><rect x="252" y="198.872" width="6" height="1.12788" stroke="black" stroke-width="1" fill="blue" tooltip="enable"><title>(1.42949,102)</title></rect><rect x="258" y="199.204" width="6" height="0.796152" stroke="black" stroke-width="1" fill="blue" tooltip="enable"><title>(1.46353,72)</title></rect><rect x="264" y="199.325" width="6" height="0.674518" stroke="black" stroke-width="1" fill="blue" tooltip="enable"><title>(1.49756,61)</title></rect><rect x="270" y="199.226" width="6" height="0.774037" stroke="black" stroke-width="1" fill="blue" tooltip="enable"><title>(1.5316,70)</title></rect><rect x="276" y="199.259" width="6" height="0.740864" stroke="black" stroke-width="1" fill="blue" tooltip="enable"><title>(1.56564,67)</title></rect><rect x="282" y="199.491" width="6" height="0.508653" stroke="black" stroke-width="1" fill="blue" tooltip="enable"><title>(1.59967,46)</title></rect><rect x="288" y="199.425" width="6" height="0.574999" stroke="black" stroke-width="1" fill="blue" tooltip="enable"><title>(1.63371,52)</title></rect><rect x="294" y="199.58" width="6" height="0.420191" stroke="black" stroke-width="1" fill="blue" tooltip="enable"><title>(1.66774,38)</title></rect><rect x="300" y="199.525" width="6" height="0.47548" stroke="black" stroke-width="1" fill="blue" tooltip="enable"><title>(1.70178,43)</title></rect><rect x="306" y="199.679" width="6" height="0.320672" stroke="black" stroke-width="1" fill="blue" tooltip="enable"><title>(1.73581,29)</title></rect><rect x="312" y="199.624" width="6" height="0.375961" stroke="black" stroke-width="1" fill="blue" tooltip="enable"><title>(1.76985,34)</title></rect><rect x="318" y="199.679" width="6" height="0.320672" stroke="black" stroke-width="1" fill="blue" tooltip="enable"><title>(1.80388,29)</title></rect><rect x="324" y="199.712" width="6" height="0.287499" stroke="black" stroke-width="1" fill="blue" tooltip="enable"><title>(1.83792,26)</title></rect><rect x="330" y="199.69" width="6" height="0.309615" stroke="black" stroke-width="1" fill="blue" tooltip="enable"><title>(1.87196,28)</title></rect><rect x="336" y="199.845" width="6" height="0.154807" stroke="black" stroke-width="1" fill="blue" tooltip="enable"><title>(1.90599,14)</title></rect><rect x="342" y="199.757" width="6" height="0.243269" stroke="black" stroke-width="1" fill="blue" tooltip="enable"><title>(1.94003,22)</title></rect><rect x="348" y="199.735" width="6" height="0.265384" stroke="black" stroke-width="1" fill="blue" tooltip="enable"><title>(1.97406,24)</title></rect><rect x="354" y="199.823" width="6" height="0.176923" stroke="black" stroke-width="1" fill="blue" tooltip="enable"><title>(2.0081,16)</title></rect><rect x="360" y="199.779" width="6" height="0.221153" stroke="black" stroke-width="1" fill="blue" tooltip="enable"><title>(2.04213,20)</title></rect><rect x="366" y="199.823" width="6" height="0.176923" stroke="black" stroke-width="1" fill="blue" tooltip="enable"><title>(2.07617,16)</title></rect><rect x="372" y="199.934" width="6" height="0.066346" stroke="black" stroke-width="1" fill="blue" tooltip="enable"><title>(2.1102,6)</title></rect><rect x="378" y="199.856" width="6" height="0.14375" stroke="black" stroke-width="1" fill="blue" tooltip="enable"><title>(2.14424,13)</title></rect><rect x="384" y="199.945" width="6" height="0.0552883" stroke="black" stroke-width="1" fill="blue" tooltip="enable"><title>(2.17828,5)</title></rect><rect x="390" y="199.856" width="6" height="0.14375" stroke="black" stroke-width="1" fill="blue" tooltip="enable"><title>(2.21231,13)</title></rect><rect x="396" y="199.912" width="6" height="0.0884613" stroke="black" stroke-width="1" fill="blue" tooltip="enable"><title>(2.24635,8)</title></rect><rect x="402" y="199.912" width="6" height="0.0884613" stroke="black" stroke-width="1" fill="blue" tooltip="enable"><title>(2.28038,8)</title></rect><rect x="408" y="199.967" width="6" height="0.033173" stroke="black" stroke-width="1" fill="blue" tooltip="enable"><title>(2.31442,3)</title></rect><rect x="414" y="199.912" width="6" height="0.0884613" stroke="black" stroke-width="1" fill="blue" tooltip="enable"><title>(2.34845,8)</title></rect><rect x="420" y="199.934" width="6" height="0.066346" stroke="black" stroke-width="1" fill="blue" tooltip="enable"><title>(2.38249,6)</title></rect><rect x="426" y="199.967" width="6" height="0.033173" stroke="black" stroke-width="1" fill="blue" tooltip="enable"><title>(2.41652,3)</title></rect><rect x="432" y="199.967" width="6" height="0.033173" stroke="black" stroke-width="1" fill="blue" tooltip="enable"><title>(2.45056,3)</title></rect><rect x="438" y="199.978" width="6" height="0.0221153" stroke="black" stroke-width="1" fill="blue" tooltip="enable"><title>(2.4846,2)</title></rect><rect x="444" y="199.956" width="6" height="0.0442307" stroke="black" stroke-width="1" fill="blue" tooltip="enable"><title>(2.51863,4)</title></rect><rect x="450" y="199.956" width="6" height="0.0442307" stroke="black" stroke-width="1" fill="blue" tooltip="enable"><title>(2.55267,4)</title></rect><rect x="456" y="199.978" width="6" height="0.0221153" stroke="black" stroke-width="1" fill="blue" tooltip="enable"><title>(2.5867,2)</title></rect><rect x="462" y="199.923" width="6" height="0.0774037" stroke="black" stroke-width="1" fill="blue" tooltip="enable"><title>(2.62074,7)</title></rect><rect x="468" y="199.967" width="6" height="0.033173" stroke="black" stroke-width="1" fill="blue" tooltip="enable"><title>(2.65477,3)</title></rect><rect x="474" y="200" width="6" height="0" stroke="black" stroke-width="1" fill="blue" tooltip="enable"><title>(2.68881,0)</title></rect><rect x="480" y="199.989" width="6" height="0.0110577" stroke="black" stroke-width="1" fill="blue" tooltip="enable"><title>(2.72284,1)</title></rect><rect x="486" y="199.978" width="6" height="0.0221153" stroke="black" stroke-width="1" fill="blue" tooltip="enable"><title>(2.75688,2)</title></rect><rect x="492" y="199.967" width="6" height="0.033173" stroke="black" stroke-width="1" fill="blue" tooltip="enable"><title>(2.79092,3)</title></rect><rect x="498" y="199.989" width="6" height="0.0110577" stroke="black" stroke-width="1" fill="blue" tooltip="enable"><title>(2.82495,1)</title></rect><rect x="504" y="199.989" width="6" height="0.0110577" stroke="black" stroke-width="1" fill="blue" tooltip="enable"><title>(2.85899,1)</title></rect><rect x="510" y="199.989" width="6" height="0.0110577" stroke="black" stroke-width="1" fill="blue" tooltip="enable"><title>(2.89302,1)</title></rect><rect x="516" y="200" width="6" height="0" stroke="black" stroke-width="1" fill="blue" tooltip="enable"><title>(2.92706,0)</title></rect><rect x="522" y="200" width="6" height="0" stroke="black" stroke-width="1" fill="blue" tooltip="enable"><title>(2.96109,0)</title></rect><rect x="528" y="199.989" width="6" height="0.0110577" stroke="black" stroke-width="1" fill="blue" tooltip="enable"><title>(2.99513,1)</title></rect><rect x="534" y="199.989" width="6" height="0.0110577" stroke="black" stroke-width="1" fill="blue" tooltip="enable"><title>(3.02916,1)</title></rect><rect x="540" y="200" width="6" height="0" stroke="black" stroke-width="1" fill="blue" tooltip="enable"><title>(3.0632,0)</title></rect><rect x="546" y="199.989" width="6" height="0.0110577" stroke="black" stroke-width="1" fill="blue" tooltip="enable"><title>(3.09724,1)</title></rect><rect x="552" y="199.989" width="6" height="0.0110577" stroke="black" stroke-width="1" fill="blue" tooltip="enable"><title>(3.13127,1)</title></rect><rect x="558" y="199.989" width="6" height="0.0110577" stroke="black" stroke-width="1" fill="blue" tooltip="enable"><title>(3.16531,1)</title></rect><rect x="564" y="200" width="6" height="0" stroke="black" stroke-width="1" fill="blue" tooltip="enable"><title>(3.19934,0)</title></rect><rect x="570" y="200" width="6" height="0" stroke="black" stroke-width="1" fill="blue" tooltip="enable"><title>(3.23338,0)</title></rect><rect x="576" y="200" width="6" height="0" stroke="black" stroke-width="1" fill="blue" tooltip="enable"><title>(3.26741,0)</title></rect><rect x="582" y="200" width="6" height="0" stroke="black" stroke-width="1" fill="blue" tooltip="enable"><title>(3.30145,0)</title></rect><rect x="588" y="200" width="6" height="0" stroke="black" stroke-width="1" fill="blue" tooltip="enable"><title>(3.33548,0)</title></rect><rect x="594" y="199.989" width="6" height="0.0110577" stroke="black" stroke-width="1" fill="blue" tooltip="enable"><title>(3.36952,1)</title></rect><text x="30" y="240" font-size="20" fill="black">0</text>
<text x="600" y="240" font-size="20" fill="black">3.40356</text>
<polyline points="0,220,600,220" stroke="black" stroke-width="1" fill="none"/>
<text x="720" y="20" font-size="20" fill="black">18087</text>
<text x="720" y="200" font-size="20" fill="black">0</text>
<polyline points="660,0,660,200" stroke="black" stroke-width="1" fill="none"/>
</svg>